<svg xmlns="http://www.w3.org/2000/svg" width="40" height="40" viewBox="0 0 40 40">
  <g id="Group_9180" data-name="Group 9180" transform="translate(-6699.999 -9448.999)">
    <g id="Group_6633" data-name="Group 6633" transform="translate(29835.328 11313)">
      <path id="Path_62595" data-name="Path 62595" d="M253.614,369.757v2c0,.08-.064.152-.08.231a9.576,9.576,0,0,1-6.64,8.014c-.3.1-.408.215-.408.542v8.986h-25.73v-8.971a.479.479,0,0,0-.4-.55,9.687,9.687,0,0,1,4.192-18.834.93.93,0,0,0,.944-.375,10.117,10.117,0,0,1,6.04-3.588,10.43,10.43,0,0,1,7.377,1.2,10.039,10.039,0,0,1,2.936,2.5.681.681,0,0,0,.656.279,14.716,14.716,0,0,1,2.584,0,9.59,9.59,0,0,1,8.2,7.176C253.414,368.84,253.51,369.31,253.614,369.757Z" transform="translate(-23348.943 -2220.995)" fill="#fff"/>
      <path id="Path_62596" data-name="Path 62596" d="M222.52,408.639V401H226.7v2.264h2.512V401h4.9v2.273h2.52V401h4.92v2.273h2.528V401h4.184v7.639Z" transform="translate(-23350.709 -2232.639)" fill="#fff"/>
    </g>
  </g>
</svg>
