<svg xmlns="http://www.w3.org/2000/svg" width="36.872" height="69.996" viewBox="0 0 36.872 69.996">
  <path id="Union_6" data-name="Union 6" d="M9401.433,3438.965a6,6,0,0,1-5.927-5.643c-.128-2.4-.04-4.824-.045-7.24v-.991h25.893c0,2.792.11,5.548-.036,8.295a5.963,5.963,0,0,1-5.912,5.579q-3.5.032-6.984.033T9401.433,3438.965Zm-6.223-18.066c-.191-1.741-.376-3.452-.562-5.172q-.5-4.709-1.011-9.426-.514-4.745-1.033-9.5-.511-4.709-1.011-9.426-.582-5.5-1.183-10.994c-.116-1-.274-2-.412-3.012V3369h36.842a56.827,56.827,0,0,1-.554,8.846c-.346,3.118-.677,6.241-1.015,9.357q-.511,4.78-1.034,9.565-.511,4.713-1.016,9.428-.51,4.752-1.033,9.5-.277,2.6-.561,5.2Z" transform="translate(-9389.998 -3369.002)" fill="#28282b"/>
</svg>