<svg xmlns="http://www.w3.org/2000/svg" xmlns:xlink="http://www.w3.org/1999/xlink" width="20.89" height="50" viewBox="0 0 20.89 50">
  <defs>
    <clipPath id="clip-path">
      <rect id="Rectangle_2653" data-name="Rectangle 2653" width="20.89" height="50" fill="#fff"/>
    </clipPath>
  </defs>
  <g id="Group_9181" data-name="Group 9181" transform="translate(-6950 -9445)">
    <g id="Group_6629" data-name="Group 6629" transform="translate(6950 9445)" clip-path="url(#clip-path)">
      <path id="Path_62593" data-name="Path 62593" d="M35.713,3.261a.657.657,0,0,0,.742.766q5.691,0,11.381,0a.661.661,0,0,0,.748-.764c-.012-.768.028-1.537-.018-2.3a4.019,4.019,0,0,0-.3-.961H36.038a3.975,3.975,0,0,0-.307.958c-.046.765,0,1.535-.018,2.3" transform="translate(-31.696)" fill="#fff"/>
      <path id="Path_62594" data-name="Path 62594" d="M20.89,78.9c0-.18,0-.36-.005-.54q0-1.431-.007-2.863,0-.546,0-1.092c0-.327-.006-.651-.02-.974a17.768,17.768,0,0,0-.328-2.865c-.015-.077-.031-.153-.047-.229s-.031-.156-.048-.233a19.039,19.039,0,0,0-1.088-3.418A27.149,27.149,0,0,0,18.175,64.2c-.07-.13-.137-.262-.206-.393q-.515-1.028-1.05-2.046-.274-.541-.55-1.081a8.677,8.677,0,0,1-.772-2.795,8.792,8.792,0,0,1-.015-.967c.021-.54,0-1.082,0-1.668H5.3c0,.586-.017,1.128,0,1.668a8.792,8.792,0,0,1-.015.967,8.674,8.674,0,0,1-.772,2.795q-.277.539-.55,1.081-.534,1.018-1.05,2.046c-.069.131-.137.263-.206.393a27.15,27.15,0,0,0-1.176,2.489A19.038,19.038,0,0,0,.451,70.1c-.017.077-.032.156-.048.233s-.032.153-.047.229A17.768,17.768,0,0,0,.027,73.43c-.014.323-.021.648-.02.974q0,.546,0,1.092,0,1.431-.007,2.863c0,.18,0,.36-.005.54,0,.045,0,.088,0,.13q-.012,8.18,0,16.359A3.3,3.3,0,0,0,1.577,98.26a4.735,4.735,0,0,0,2.7.772q3.082.01,6.164,0t6.164,0a4.735,4.735,0,0,0,2.7-.772,3.3,3.3,0,0,0,1.573-2.871q0-8.18,0-16.359c0-.042,0-.084,0-.13M4,87.822V84.171q0-.888,0-1.776H4q0,.888,0,1.776Q4,86,4,87.822m12.883-3.651v3.651q0-1.826,0-3.651,0-.888,0-1.776h0q0,.888,0,1.776" transform="translate(0 -49.037)" fill="#fff"/>
    </g>
  </g>
</svg>
