<svg id="Group_6630" data-name="Group 6630" xmlns="http://www.w3.org/2000/svg" xmlns:xlink="http://www.w3.org/1999/xlink" width="27.157" height="65" viewBox="0 0 27.157 65">
  <defs>
    <clipPath id="clip-path">
      <rect id="Rectangle_2653" data-name="Rectangle 2653" width="27.157" height="65" fill="#28282b"/>
    </clipPath>
  </defs>
  <g id="Group_6629" data-name="Group 6629" clip-path="url(#clip-path)">
    <path id="Path_62593" data-name="Path 62593" d="M35.714,4.239a.854.854,0,0,0,.965,1q7.4.006,14.8,0a.86.86,0,0,0,.973-.993c-.016-1,.036-2-.023-2.993A5.225,5.225,0,0,0,52.03,0H36.137a5.168,5.168,0,0,0-.4,1.245c-.059.995,0,2-.024,2.993" transform="translate(-30.492)" fill="#28282b"/>
    <path id="Path_62594" data-name="Path 62594" d="M27.157,86c0-.234,0-.468-.007-.7q0-1.861-.009-3.721,0-.71.006-1.42c0-.425-.008-.847-.025-1.267a23.1,23.1,0,0,0-.427-3.724c-.019-.1-.041-.2-.061-.3s-.04-.2-.063-.3a24.75,24.75,0,0,0-1.414-4.443,35.3,35.3,0,0,0-1.529-3.236c-.091-.169-.179-.341-.268-.511q-.67-1.337-1.365-2.66-.356-.7-.716-1.405a11.281,11.281,0,0,1-1-3.633,11.431,11.431,0,0,1-.019-1.258c.027-.7,0-1.406,0-2.168H6.9c0,.762-.023,1.466,0,2.168a11.43,11.43,0,0,1-.019,1.258,11.277,11.277,0,0,1-1,3.633q-.361.7-.715,1.405Q4.467,65.033,3.8,66.37c-.09.17-.178.341-.268.511A35.3,35.3,0,0,0,2,70.116,24.75,24.75,0,0,0,.586,74.56c-.023.1-.042.2-.063.3s-.042.2-.061.3a23.1,23.1,0,0,0-.427,3.724c-.018.42-.027.842-.025,1.267q0,.71.006,1.42Q.011,83.433.007,85.294c0,.234,0,.468-.007.7,0,.059,0,.115,0,.169Q-.01,96.8.006,107.432a4.289,4.289,0,0,0,2.044,3.732,6.156,6.156,0,0,0,3.514,1q4.007.013,8.014,0t8.013,0a6.156,6.156,0,0,0,3.514-1,4.288,4.288,0,0,0,2.044-3.732q0-10.634,0-21.267c0-.054.006-.11,0-.169M5.2,97.6V92.849q0-1.155,0-2.309h0q0,1.154,0,2.309,0,2.373,0,4.746m16.748-4.746V97.6q0-2.373,0-4.746,0-1.154,0-2.309h0q0,1.155,0,2.309" transform="translate(0 -47.174)" fill="#28282b"/>
  </g>
</svg>