<svg xmlns="http://www.w3.org/2000/svg" width="50.44" height="48.926" viewBox="0 0 50.44 48.926">
  <path id="Untitled-2" d="M1102.431-17.3c-.022-.731-.142-1.457-.225-2.266l-1.517.86a8.394,8.394,0,0,0-2.472-5.868,8.454,8.454,0,0,0-5.829-2.457c.289-.505.544-.952.845-1.48-.557-.08-1.017-.17-1.484-.21a17.491,17.491,0,0,0-7.478.97,31.135,31.135,0,0,0-2.912,1.21c0-.015-.005-.029-.009-.045-.126-.5-.2-1.022-.314-1.528a22.308,22.308,0,0,0-4.881-9.877,14.343,14.343,0,0,0-2.944-2.576c-.168.607-.321,1.162-.491,1.777a8.385,8.385,0,0,0-5.825-2.34,8.418,8.418,0,0,0-5.832,2.346l-.491-1.766a4.372,4.372,0,0,0-.421.263c-.5.4-1.013.783-1.471,1.225-3.75,3.623-5.565,8.188-6.367,13.236-.126.794-.208,1.594-.31,2.393v3.941c.067.5.141.992.2,1.49a24.9,24.9,0,0,0,3.5,10.465,15.126,15.126,0,0,0,7.083,6.354,9.8,9.8,0,0,0,3.746.788,10.608,10.608,0,0,0,7.388,7.533,15.989,15.989,0,0,0,10.133-.373,27.6,27.6,0,0,0,14.32-11.157A21.5,21.5,0,0,0,1102.431-17.3Z" transform="translate(-1052 41.13)" fill="#28282b"/>
</svg>