<svg xmlns="http://www.w3.org/2000/svg" width="50" height="49.972" viewBox="0 0 50 49.972">
  <g id="Group_6635" data-name="Group 6635" transform="translate(23132.002 1648)">
    <g id="Untitled-1" transform="translate(-23132.002 -1648)">
      <path id="Path_62435" data-name="Path 62435" d="M205.416,283.591c.165-.969.342-1.933.491-2.9q.942-6.335,1.9-12.67l1.714-11.393c.028-.174.064-.348.1-.536h36.869l2.346,15.585c-.161-.116-.278-.183-.382-.268a11.093,11.093,0,0,0-15.587,1.366c-2.326,2.572-4.64,5.156-6.971,7.723a5.19,5.19,0,0,0-1.268,4.978,1.487,1.487,0,0,1,0,.268H206.475a2.135,2.135,0,0,1-1.075-1.192Z" transform="translate(-205.4 -235.783)" fill="#28282b"/>
      <path id="Path_62436" data-name="Path 62436" d="M261.119,307.151a1.818,1.818,0,0,1-1.091-1.813,2.617,2.617,0,0,1,.474-1.33c2.5-3.054,5.015-6.113,7.592-9.087a8.234,8.234,0,0,1,12.819.035c2.547,2.949,5.028,5.978,7.529,8.967a2.032,2.032,0,0,1-.583,3.208Z" transform="translate(-238.995 -257.178)" fill="#28282b"/>
      <path id="Path_62437" data-name="Path 62437" d="M232.7,237.142H214.989c-1.207,0-1.775-.555-1.779-1.787v-4.294a1.562,1.562,0,0,1,1.783-1.791h35.416c1.252,0,1.807.563,1.811,1.823v4.338a1.53,1.53,0,0,1-1.719,1.71Z" transform="translate(-210.067 -216.835)" fill="#28282b"/>
      <path id="Path_62438" data-name="Path 62438" d="M226.9,211.229c.212-.229.343-.386.49-.544l7.83-7.836A14.539,14.539,0,0,1,246.9,198.42a13.854,13.854,0,0,1,8.935,3.88c2.944,2.829,5.795,5.762,8.706,8.646a2.527,2.527,0,0,1,.2.272Z" transform="translate(-223.173 -198.371)" fill="#28282b"/>
    </g>
  </g>
</svg>