<svg xmlns="http://www.w3.org/2000/svg" width="40" height="40" viewBox="0 0 40 40">
  <g id="Group_9183" data-name="Group 9183" transform="translate(-7420 -9450)">
    <g id="Untitled-1" transform="translate(7420 9450)">
      <path id="Path_62435" data-name="Path 62435" d="M205.413,278.1c.132-.775.274-1.547.393-2.323q.753-5.071,1.52-10.142l1.372-9.12c.023-.139.052-.279.077-.429h29.5l1.877,12.475c-.129-.093-.222-.147-.306-.214a8.871,8.871,0,0,0-12.47,1.094c-1.861,2.058-3.712,4.127-5.576,6.182a4.156,4.156,0,0,0-1.014,3.984,1.187,1.187,0,0,1,0,.214H206.26a1.708,1.708,0,0,1-.86-.954Z" transform="translate(-205.4 -239.835)" fill="#fff"/>
      <path id="Path_62436" data-name="Path 62436" d="M260.9,304.1a1.455,1.455,0,0,1-.872-1.452,2.1,2.1,0,0,1,.38-1.065c2-2.444,4.012-4.893,6.073-7.274a6.585,6.585,0,0,1,10.255.028c2.038,2.361,4.022,4.785,6.023,7.178a1.627,1.627,0,0,1-.466,2.568Z" transform="translate(-243.2 -264.102)" fill="#fff"/>
      <path id="Path_62437" data-name="Path 62437" d="M228.8,235.571H214.633c-.966,0-1.42-.445-1.423-1.43V230.7a1.25,1.25,0,0,1,1.426-1.434h28.333c1,0,1.446.451,1.449,1.459V234.2a1.224,1.224,0,0,1-1.375,1.369Z" transform="translate(-210.696 -219.316)" fill="#fff"/>
      <path id="Path_62438" data-name="Path 62438" d="M226.9,208.657c.17-.183.274-.309.392-.435l6.264-6.268a11.631,11.631,0,0,1,9.342-3.543,11.083,11.083,0,0,1,7.148,3.1c2.355,2.264,4.636,4.61,6.965,6.917a2.027,2.027,0,0,1,.161.218Z" transform="translate(-223.919 -198.371)" fill="#fff"/>
    </g>
  </g>
</svg>
