<svg xmlns="http://www.w3.org/2000/svg" width="40" height="38.799" viewBox="0 0 40 38.799">
  <g id="Group_9182" data-name="Group 9182" transform="translate(-7180 -9450)">
    <path id="Untitled-2" d="M1091.993-22.232c-.018-.579-.113-1.155-.179-1.8l-1.2.682a6.655,6.655,0,0,0-1.96-4.653,6.7,6.7,0,0,0-4.622-1.949l.67-1.174c-.441-.063-.807-.135-1.177-.167a13.871,13.871,0,0,0-5.93.769,24.719,24.719,0,0,0-2.31.96c0-.012,0-.023-.007-.036-.1-.4-.155-.81-.249-1.212a17.686,17.686,0,0,0-3.871-7.833,11.371,11.371,0,0,0-2.335-2.042c-.133.482-.255.921-.389,1.409a6.65,6.65,0,0,0-4.62-1.856,6.676,6.676,0,0,0-4.625,1.861l-.39-1.4a3.45,3.45,0,0,0-.334.208c-.393.319-.8.621-1.167.971a17.9,17.9,0,0,0-5.049,10.5c-.1.63-.165,1.264-.246,1.9v3.125c.053.393.112.787.157,1.182a19.749,19.749,0,0,0,2.778,8.3,11.993,11.993,0,0,0,5.617,5.039,7.772,7.772,0,0,0,2.97.625,8.412,8.412,0,0,0,5.859,5.974,12.68,12.68,0,0,0,8.036-.3A21.887,21.887,0,0,0,1088.773-12,17.05,17.05,0,0,0,1091.993-22.232Z" transform="translate(6128 9491.13)" fill="#fff"/>
  </g>
</svg>
