<svg xmlns="http://www.w3.org/2000/svg" width="16.844" height="20.395" viewBox="0 0 16.844 20.395">
  <g id="Group_7388" data-name="Group 7388" transform="translate(-750 -1008.249)">
    <g id="Shield_Done" data-name="Shield Done" transform="translate(750 1008.25)">
      <path id="Stroke_1" data-name="Stroke 1" d="M14.615,2.375A1.089,1.089,0,0,1,15.344,3.4v6.773a7.781,7.781,0,0,1-1.9,5.1,7.771,7.771,0,0,1-2.2,1.7L7.678,18.9,4.114,16.972a7.767,7.767,0,0,1-2.208-1.7A7.783,7.783,0,0,1,0,10.172V3.4A1.089,1.089,0,0,1,.729,2.375L7.311.062a1.09,1.09,0,0,1,.722,0Z" transform="translate(0.75 0.749)" fill="#200e32"/>
      <path id="Stroke_1_-_Outline" data-name="Stroke 1 - Outline" d="M7.672-.75a1.832,1.832,0,0,1,.61.1l6.582,2.313A1.841,1.841,0,0,1,16.094,3.4v6.773a8.531,8.531,0,0,1-2.087,5.592,8.42,8.42,0,0,1-2.415,1.866L8.034,19.555a.75.75,0,0,1-.713,0L3.758,17.633a8.421,8.421,0,0,1-2.419-1.867A8.531,8.531,0,0,1-.75,10.172V3.4A1.841,1.841,0,0,1,.481,1.667L7.062-.646A1.839,1.839,0,0,1,7.672-.75Zm.005,18.793,3.2-1.73a6.959,6.959,0,0,0,1.995-1.529,7.031,7.031,0,0,0,1.72-4.609V3.4a.339.339,0,0,0-.227-.32L7.784.769a.341.341,0,0,0-.225,0L.978,3.082A.34.34,0,0,0,.75,3.4v6.769a7.032,7.032,0,0,0,1.722,4.611,6.961,6.961,0,0,0,2,1.53Z" transform="translate(0.75 0.749)" fill="#200e32"/>
      <path id="Stroke_3" data-name="Stroke 3" d="M0,2.005,1.892,3.9,5.79,0" transform="translate(5.823 7.913)" fill="#200e32"/>
      <path id="Stroke_3_-_Outline" data-name="Stroke 3 - Outline" d="M1.892,4.648a.747.747,0,0,1-.53-.22L-.53,2.535a.75.75,0,0,1,0-1.061.75.75,0,0,1,1.061,0L1.892,2.837,5.26-.53a.75.75,0,0,1,1.061,0A.75.75,0,0,1,6.32.53l-3.9,3.9A.75.75,0,0,1,1.892,4.648Z" transform="translate(5.823 7.913)" fill="#fff"/>
    </g>
  </g>
</svg>
