<svg xmlns="http://www.w3.org/2000/svg" width="16" height="16" viewBox="0 0 16 16">
  <g id="instagram_icn__1" data-name="instagram_icn _1" transform="translate(-4 -4)">
    <path id="instagram_icn" d="M8,16c-2.134,0-2.422-.009-3.3-.047a5.905,5.905,0,0,1-1.941-.373,3.956,3.956,0,0,1-1.416-.922A3.913,3.913,0,0,1,.419,13.24,5.866,5.866,0,0,1,.047,11.3C.009,10.444,0,10.16,0,8,0,5.82.009,5.561.05,4.7A5.883,5.883,0,0,1,.422,2.76a3.954,3.954,0,0,1,.922-1.417A3.886,3.886,0,0,1,2.764.419,5.894,5.894,0,0,1,4.705.047C5.56.009,5.844,0,8,0c2.183,0,2.441.009,3.3.05a5.9,5.9,0,0,1,1.941.372,3.966,3.966,0,0,1,1.416.922,3.888,3.888,0,0,1,.925,1.419A5.877,5.877,0,0,1,15.96,4.7C16,5.562,16,5.839,16,8c0,2.133-.009,2.421-.047,3.3a5.9,5.9,0,0,1-.373,1.94,4.1,4.1,0,0,1-2.341,2.341,5.879,5.879,0,0,1-1.941.373C10.422,15.991,10.134,16,8,16ZM8.009,1.454c-2.113,0-2.369.008-3.232.047a4.374,4.374,0,0,0-1.485.275,2.464,2.464,0,0,0-.919.6,2.45,2.45,0,0,0-.6.919A4.421,4.421,0,0,0,1.5,4.776c-.039.859-.047,1.115-.047,3.232s.008,2.369.047,3.232a4.408,4.408,0,0,0,.275,1.484,2.478,2.478,0,0,0,.6.919,2.488,2.488,0,0,0,.919.6,4.422,4.422,0,0,0,1.485.274c.86.039,1.116.047,3.233.047s2.37-.008,3.232-.047a4.409,4.409,0,0,0,1.485-.274,2.658,2.658,0,0,0,1.52-1.519,4.422,4.422,0,0,0,.274-1.485c.039-.863.047-1.119.047-3.228s-.008-2.37-.047-3.232a4.424,4.424,0,0,0-.274-1.485,2.478,2.478,0,0,0-.6-.919,2.474,2.474,0,0,0-.919-.6A4.386,4.386,0,0,0,11.242,1.5C10.383,1.462,10.127,1.454,8.009,1.454ZM7.946,12.171a3.947,3.947,0,1,1,3.946-3.946A3.951,3.951,0,0,1,7.946,12.171Zm0-6.507a2.56,2.56,0,1,0,2.561,2.561A2.563,2.563,0,0,0,7.946,5.664Zm4.1-.621a.921.921,0,1,1,.922-.922A.923.923,0,0,1,12.049,5.043Z" transform="translate(4 4)" fill="#1b2437"/>
  </g>
</svg>
