<svg xmlns="http://www.w3.org/2000/svg" width="154.443" height="63.976" viewBox="0 0 154.443 63.976">
  <g id="Group_7391" data-name="Group 7391" transform="translate(19109 15844)">
    <path id="Path_63303" data-name="Path 63303" d="M5.67.027,10.1,0l3.7-13.419L17.334,0h4.455l5.265-18.846H22.977L19.629-4.293,16.011-18.846H11.8L7.965-4.212,4.644-18.846H.594ZM35.937-12.1A3.323,3.323,0,0,1,39.5-8.883H32.4A3.474,3.474,0,0,1,35.937-12.1Zm7.1,7.4H38.961a3.082,3.082,0,0,1-3,1.809,3.5,3.5,0,0,1-3.591-3.456H43.308A8.835,8.835,0,0,0,43.416-7.8a7.022,7.022,0,0,0-7.371-7.4c-4.428,0-7.506,3-7.506,7.722,0,4.7,3.159,7.722,7.506,7.722A6.952,6.952,0,0,0,43.038-4.7ZM45.2-7.533c0,4.671,3.024,7.776,6.831,7.776A5.9,5.9,0,0,0,56.97-2.214V.108c0,2.781-1.62,3.969-3.7,3.969-1.89,0-3.294-.891-3.672-2.241H45.846c.378,3.429,3.321,5.535,7.533,5.535,4.914,0,7.4-3.213,7.4-7.263V-14.958H56.97v2.133A5.852,5.852,0,0,0,52.029-15.2C48.222-15.2,45.2-12.2,45.2-7.533Zm11.772.054c0,2.835-1.89,4.4-3.969,4.4-2.025,0-3.942-1.62-3.942-4.455A3.989,3.989,0,0,1,53-11.88C55.08-11.88,56.97-10.314,56.97-7.479ZM63.5-7.533c0,4.671,3.024,7.776,6.8,7.776a5.9,5.9,0,0,0,4.968-2.43V0h3.807V-14.958H75.276v2.133A5.915,5.915,0,0,0,70.335-15.2C66.528-15.2,63.5-12.2,63.5-7.533Zm11.772.054c0,2.835-1.89,4.4-3.969,4.4-2.025,0-3.942-1.62-3.942-4.455a3.989,3.989,0,0,1,3.942-4.347C73.386-11.88,75.276-10.314,75.276-7.479ZM93.258,0h3.78V-8.775c0-4.131-2.484-6.4-5.967-6.4A5.587,5.587,0,0,0,86.562-13.1v-1.863h-3.78V0h3.78V-8.262c0-2.4,1.323-3.7,3.375-3.7,2,0,3.321,1.3,3.321,3.7Z" transform="translate(-19051.594 -15800.154)" fill="#040605"/>
    <circle id="Ellipse_184" data-name="Ellipse 184" cx="24.764" cy="24.764" r="24.764" transform="translate(-19109 -15844)" fill="#cfe9cc"/>
    <path id="Path_58939" data-name="Path 58939" d="M87.559,120a1.422,1.422,0,0,0-1.921.173,1.441,1.441,0,0,0,.173,2.036l12.046,10.182v5.936a17.444,17.444,0,0,1-12.1-5.763c-6.974-8.127-3.842-19.788.211-28.164a76.175,76.175,0,0,1,8.568-13.141,1.445,1.445,0,0,0-2.286-1.767A78.633,78.633,0,0,0,83.2,103.148c-6.186,13.1-6.109,23.918.211,31.276a20.633,20.633,0,0,0,15.581,6.839h0a1.652,1.652,0,0,0,1.595-1.537v-8.011a1.5,1.5,0,0,0-.519-1.114Z" transform="translate(-19183.457 -15921.29)" fill="#040605"/>
    <path id="Path_58940" data-name="Path 58940" d="M105.9,100.663l-10.374,8.376-10.47-8.607a1.464,1.464,0,0,0-1.921,2.209c.154.134,11.3,9.318,11.527,9.433a1.4,1.4,0,0,0,1.729,0l11.3-9.145a1.441,1.441,0,0,0,.211-2.017,1.46,1.46,0,0,0-2-.25Z" transform="translate(-19179.758 -15911.023)" fill="#040605"/>
    <path id="Path_58941" data-name="Path 58941" d="M86.609,96.353a1.457,1.457,0,0,0-1.921,2.19l3.439,2.978a1.46,1.46,0,0,0,2.036-.135,1.441,1.441,0,0,0-.154-2.036Z" transform="translate(-19178.318 -15914.783)" fill="#040605"/>
    <path id="Path_58942" data-name="Path 58942" d="M91.617,114.08a1.422,1.422,0,0,0,1.921.192l8.261-6.724a1.478,1.478,0,1,0-1.921-2.248l-8.242,6.743A1.441,1.441,0,0,0,91.617,114.08Z" transform="translate(-19171.857 -15906.535)" fill="#040605"/>
    <path id="Path_58943" data-name="Path 58943" d="M105.979,106.527C102.136,98.266,93.145,88.2,91.147,85.76a1.46,1.46,0,0,0-2.555,1.076c0,.211,0-1.383,0,27.319a1.518,1.518,0,0,0,2.459,1.133l8.53-6.743a1.422,1.422,0,0,0,.25-1.921,1.46,1.46,0,0,0-2.036-.25l-6.321,5V90.62a94.734,94.734,0,0,1,11.911,17.194c3.842,8.376,7.166,20.038.192,28.164a15,15,0,0,1-8.146,5.283,1.444,1.444,0,0,0,.692,2.8,17.924,17.924,0,0,0,9.606-6.205C112.088,130.446,112.165,119.63,105.979,106.527Z" transform="translate(-19174.27 -15924.669)" fill="#040605"/>
  </g>
</svg>
