<svg id="Paper_Upload" data-name="Paper Upload" xmlns="http://www.w3.org/2000/svg" width="17" height="20" viewBox="0 0 17 20">
  <path id="Paper_Upload-2" data-name="Paper Upload" d="M4.674,20A4.7,4.7,0,0,1,0,15.29V4.51A4.493,4.493,0,0,1,4.465,0H9.752a.464.464,0,0,1,.455.46V3.68a3.341,3.341,0,0,0,3.308,3.34c.416,0,.785,0,1.11.005.256,0,.482,0,.682,0,.141,0,.323,0,.521,0,.229,0,.486-.005.716-.005A.453.453,0,0,1,17,7.47v8.04A4.478,4.478,0,0,1,12.544,20ZM7.4,9.293V14.12a.738.738,0,1,0,1.475,0V9.29l1.574,1.6a.731.731,0,0,0,1.04,0,.739.739,0,0,0,.01-1.05L8.654,6.96A.78.78,0,0,0,8.416,6.8a.644.644,0,0,0-.277-.06.7.7,0,0,0-.287.06.78.78,0,0,0-.238.159L4.783,9.84a.748.748,0,0,0,0,1.05.731.731,0,0,0,1.04,0l1.572-1.6,0,0Zm6.246-3.733a2.018,2.018,0,0,1-2-2.017V.906a.472.472,0,0,1,.813-.334C13.53,1.7,15.4,3.661,16.445,4.759a.477.477,0,0,1-.34.806h-.691C14.787,5.567,14.144,5.564,13.642,5.559Z" fill="#200e32"/>
</svg>