<svg xmlns="http://www.w3.org/2000/svg" width="16.857" height="19.77" viewBox="0 0 16.857 19.77">
  <g id="Group_7387" data-name="Group 7387" transform="translate(-750 -867.75)">
    <path id="Path_33958" d="M0,10.618a7.679,7.679,0,0,0,15.357-.052v-.087a11.338,11.338,0,0,0-3.478-7.3A20.184,20.184,0,0,0,8.287.227a.931.931,0,0,0-1.217,0,19.818,19.818,0,0,0-5.052,4.73A9.826,9.826,0,0,0,0,10.592Z" transform="translate(751 868.5)"/>
    <path id="Path_33958_-_Outline" data-name="Path_33958 - Outline" d="M7.678,19.02a8.429,8.429,0,0,1-8.428-8.4v-.029q0-.013,0-.026A10.517,10.517,0,0,1,1.419,4.5a20.505,20.505,0,0,1,5.2-4.883,1.681,1.681,0,0,1,2.108,0,20.961,20.961,0,0,1,3.687,3.042l0,0c2.982,3.147,3.649,5.977,3.684,7.8q0,.007,0,.014v.087a8.428,8.428,0,0,1-8.4,8.454ZM.75,10.605v.013a6.929,6.929,0,0,0,6.928,6.9H7.7a6.928,6.928,0,0,0,6.905-6.952v-.082c-.031-1.555-.625-3.992-3.271-6.785A19.459,19.459,0,0,0,7.881.857.748.748,0,0,1,7.8.794a.181.181,0,0,0-.236,0,.751.751,0,0,1-.082.061A19.009,19.009,0,0,0,2.618,5.407l0,.006A9.026,9.026,0,0,0,.75,10.605Z" transform="translate(750.75 868.5)"/>
  </g>
</svg>
