<svg xmlns="http://www.w3.org/2000/svg" width="76.356" height="70" viewBox="0 0 76.356 70">
  <g id="Group_6607" data-name="Group 6607" transform="translate(23128.697 1286.001)">
    <g id="Group_6536" data-name="Group 6536" transform="translate(-23128.697 -1286.001)">
      <g id="Group_6535" data-name="Group 6535" transform="translate(0)">
        <path id="Path_62476" data-name="Path 62476" d="M1228.235,765.03c-.247,1.184-.431,2.388-.747,3.546a20.163,20.163,0,1,1-23.124-25.236c.51-.1,1.029-.156,1.665-.25v-.756c0-3.6-.007-7.194,0-10.793a2.049,2.049,0,0,1,2.7-2.078,2.127,2.127,0,0,1,1.425,2.061c.021.513,0,1.029,0,1.422,1.427-.786,2.8-1.667,4.267-2.324a17.059,17.059,0,0,1,7.05-1.27,2.075,2.075,0,0,1,2.312,2.3,18.028,18.028,0,0,1-1.864,8.478,11.382,11.382,0,0,1-4.092,4.536c-.206.132-.408.268-.6.391,1.3.916,2.653,1.729,3.842,2.74a19.707,19.707,0,0,1,7,12.878,6.346,6.346,0,0,0,.151.635Zm-19.771-1.833a2.026,2.026,0,1,0,2.081-1.99A2.023,2.023,0,0,0,1208.465,763.2Zm-.789,8.377a2,2,0,0,0-2.051-2,2.025,2.025,0,0,0-2,2,2.063,2.063,0,0,0,2.028,2.055,2.032,2.032,0,0,0,2.02-2.05Zm5.633-.044a2.026,2.026,0,0,0,1.973,2.089,2.06,2.06,0,0,0,2.074-2.01,2.03,2.03,0,0,0-2.029-2.041A2,2,0,0,0,1213.308,771.531Z" transform="translate(-1151.879 -713.352)" fill="#28282b"/>
        <path id="Path_62477" data-name="Path 62477" d="M986.73,622.18l1.215.3a7.493,7.493,0,0,1,5.781,7.363c-.012,1.477-.142,2.955-.221,4.458H947.042c-.159-2.936-.9-5.894.95-8.592a7.507,7.507,0,0,1,5.368-3.379,2.179,2.179,0,0,0,.411-.149Z" transform="translate(-946.763 -622.18)" fill="#28282b"/>
        <path id="Path_62478" data-name="Path 62478" d="M997.17,731.13c-.079,1.483-.152,2.929-.231,4.368-.152,2.514-.324,5.025-.456,7.539a1.611,1.611,0,0,1-.889,1.506c-7.13,4.244-11.433,10.732-12.849,19.415a27.41,27.41,0,0,0,.34,10.267c.063.292.121.583.2.964-.3.014-.573.039-.84.039q-14.174,0-28.345.017c-.711,0-.925-.191-.968-.988-.245-4.613-.553-9.228-.837-13.84q-.327-5.42-.654-10.821-.425-6.917-.857-13.84c-.093-1.523-.169-3.044-.255-4.615Z" transform="translate(-950.207 -719.01)" fill="#28282b"/>
        <path id="Path_62479" data-name="Path 62479" d="M1006.8,1033.816a8.192,8.192,0,0,1-5.332,1.939c-7.552.028-15.1.062-22.656,0a8.576,8.576,0,0,1-8.617-8.389c-.018-.394-.059-.783-.1-1.268h.847q14.607,0,29.213-.018a1.142,1.142,0,0,1,1.183.727,23.309,23.309,0,0,0,4.93,6.484C1006.431,1033.437,1006.582,1033.6,1006.8,1033.816Z" transform="translate(-966.605 -965.789)" fill="#28282b"/>
        <path id="Path_62480" data-name="Path 62480" d="M1325.465,944.935a2.026,2.026,0,1,1,1.969,2.079A2.028,2.028,0,0,1,1325.465,944.935Z" transform="translate(-1268.881 -895.082)" fill="#28282b"/>
        <path id="Path_62481" data-name="Path 62481" d="M1297.147,1000.877a2.019,2.019,0,0,1-.585,1.442,2.018,2.018,0,0,1-3.462-1.448,2.023,2.023,0,0,1,2-1.995,1.995,1.995,0,0,1,2.051,2Z" transform="translate(-1241.356 -942.653)" fill="#28282b"/>
        <path id="Path_62482" data-name="Path 62482" d="M1357.884,1000.829a2,2,0,0,1,2.018-1.96,2.029,2.029,0,0,1,2.029,2.041,2.057,2.057,0,0,1-2.074,2.007,2,2,0,0,1-1.42-.634A2.023,2.023,0,0,1,1357.884,1000.829Z" transform="translate(-1296.464 -942.651)" fill="#28282b"/>
      </g>
    </g>
  </g>
</svg>