<svg xmlns="http://www.w3.org/2000/svg" width="60" height="59.869" viewBox="0 0 60 59.869">
  <g id="Group_6640" data-name="Group 6640" transform="translate(10832 1044.44)">
    <path id="Path_62598" data-name="Path 62598" d="M365.613,921.368h-.988c-.786-.105-1.576-.181-2.355-.323-7.368-1.331-12.228-5.543-14.445-12.681a37.333,37.333,0,0,1-.824-4.408v-1.479c.069-.563.12-1.13.209-1.69a21.332,21.332,0,0,1,12.156-16.557c2.248-1.132,4.543-2.177,6.748-3.385A76.3,76.3,0,0,0,382.69,868.4a12.334,12.334,0,0,1,20.393,5.241c1.41,4.615.242,8.728-3.052,12.258-1.626,1.741-3.27,3.472-4.8,5.3a80.28,80.28,0,0,0-11,17.815A20.624,20.624,0,0,1,371.4,920.272,45.908,45.908,0,0,1,365.613,921.368Z" transform="translate(-11179 -1905.939)" fill="#28282b"/>
    <path id="Path_62599" data-name="Path 62599" d="M652.17,847.6l3.2-3.169,6.536,6.526c-.99.987-2.049,2.044-3.154,3.148A14.217,14.217,0,0,0,652.17,847.6Z" transform="translate(-11433.904 -1888.87)" fill="#28282b"/>
  </g>
</svg>