<svg xmlns="http://www.w3.org/2000/svg" width="43.736" height="70" viewBox="0 0 43.736 70">
  <g id="Group_6642" data-name="Group 6642" transform="translate(11142.351 884.68)">
    <path id="Path_62603" data-name="Path 62603" d="M512.06,798.978A6.634,6.634,0,0,0,507.2,796.7c-1.636-.044-3.273-.01-5-.01v-3.507c0-1.962-.37-2.333-2.355-2.359-.155,0-.31,0-.567,0v-.845c0-2.916-.012-5.831.008-8.748a2.031,2.031,0,0,0-1.036-2.044H485.706a2.031,2.031,0,0,0-1.036,2.044c.021,2.916.008,5.831.008,8.748v.845c-.256,0-.411,0-.567,0-1.985.026-2.355.4-2.355,2.359v3.507c-1.726,0-3.363-.036-5,.01a6.636,6.636,0,0,0-4.864,2.275c-1.648,1.8-1.931,3.978-1.727,6.308.21,2.4.344,4.814.5,7.22.2,3.044.392,6.088.6,9.131.252,3.748.518,7.494.768,11.241.2,3.066.382,6.134.6,9.2a14.326,14.326,0,0,0,.355,2.833,5.742,5.742,0,0,0,5.73,4.274q6.629.006,13.259,0t13.259,0a5.744,5.744,0,0,0,5.73-4.274,14.321,14.321,0,0,0,.355-2.833c.216-3.066.395-6.134.6-9.2.251-3.748.516-7.494.768-11.241.2-3.044.394-6.088.6-9.131.16-2.407.293-4.818.5-7.22C513.991,802.956,513.708,800.782,512.06,798.978Zm-20.083-9.625a2.847,2.847,0,0,1-2.863-2.8,2.865,2.865,0,1,1,5.726,0A2.847,2.847,0,0,1,491.977,789.353Z" transform="translate(-11612.46 -1663.87)" fill="#28282b"/>
  </g>
</svg>