<svg xmlns="http://www.w3.org/2000/svg" width="26" height="26" viewBox="0 0 26 26">
  <g id="Group_6997" data-name="Group 6997" transform="translate(-292 -3464)">
    <circle id="Ellipse_363" data-name="Ellipse 363" cx="13" cy="13" r="13" transform="translate(292 3464)" fill="#1b2437"/>
    <g id="Swap" transform="translate(310.545 3470.917) rotate(90)">
      <path id="Swap-2" data-name="Swap" d="M8.77,10.838h0a.461.461,0,0,1-.05-.043h0l-2.5-2.51a.459.459,0,0,1,.6-.693l.051.045L8.582,9.354V2.123A.46.46,0,0,1,9.5,2.06l0,.062V9.353l1.713-1.72a.46.46,0,0,1,.7.6l-.045.051-2.5,2.51h0l0,0a.458.458,0,0,1-.594.044ZM2.5,8.867l0-.062V1.572L.785,3.294a.46.46,0,0,1-.6.046L.135,3.3a.46.46,0,0,1-.046-.6l.045-.052,2.5-2.51A.457.457,0,0,1,2.821.021h0l.009,0h0l.008,0h.223A.457.457,0,0,1,3.232.09l0,0A.462.462,0,0,1,3.28.132l0,0,2.5,2.51a.46.46,0,0,1-.6.693l-.052-.045L3.417,1.572V8.8a.46.46,0,0,1-.915.062Z" transform="translate(0.083 0.082)" fill="#fff"/>
    </g>
  </g>
</svg>
