<svg xmlns="http://www.w3.org/2000/svg" width="40.163" height="80" viewBox="0 0 40.163 80">
  <g id="Group_6606" data-name="Group 6606" transform="translate(23128.693 1355.999)">
    <g id="Group_6534" data-name="Group 6534" transform="translate(-23128.693 -1355.999)">
      <path id="Path_62471" data-name="Path 62471" d="M903.081,461.28h10.9a2.2,2.2,0,0,1,1.2,2.324c-.065,1.416-.016,2.838-.016,4.339h1.078c1.714.012,2.242.544,2.246,2.287,0,1.984.043,3.967-.02,5.947a1.744,1.744,0,0,0,.919,1.712,19.588,19.588,0,0,1,9.077,16.431,1.727,1.727,0,0,1-1.86,2c-.444.026-.892,0-1.35,0a4.39,4.39,0,0,0-.094.587c0,7.433-.016,14.884.024,22.325a1.439,1.439,0,0,0,.7.961,5.28,5.28,0,0,1,2.417,6.023c-.123,0-.25.029-.379.029H889.316a4.217,4.217,0,0,1-.836-.168v-1.565a5.3,5.3,0,0,1,2.664-4.253,1.292,1.292,0,0,0,.771-1.369q-.029-10.758-.011-21.505V496.4a6.123,6.123,0,0,1-2.095-.245c-.55-.29-.894-.992-1.328-1.512v-.2c.053-.348.131-.693.156-1.041a19.9,19.9,0,0,1,9.28-15.723,1.634,1.634,0,0,0,.62-1.142c.061-2.238.015-4.479.037-6.719a1.7,1.7,0,0,1,1.858-1.882c.468-.017.935,0,1.459,0,0-1.565.047-2.953-.015-4.343A2.194,2.194,0,0,1,903.081,461.28Zm7.294,46.647c-.234.391-.391.685-.577.96-1.369,2.056-2.758,4.088-4.068,6.175a2.3,2.3,0,0,0-.354,1.684,2.125,2.125,0,0,0,1.293,1.1c.771.247,1.326-.3,1.748-.935l6.26-9.389a1.793,1.793,0,0,0,.282-2,1.931,1.931,0,0,0-1.9-.909c-1.849.015-3.7,0-5.544,0a7.9,7.9,0,0,1-.8-.09c1.575-2.375,3.1-4.624,4.563-6.921a2.448,2.448,0,0,0,.452-1.676,2.308,2.308,0,0,0-1.307-1.223c-.753-.268-1.326.276-1.76.915q-3.146,4.73-6.306,9.473a1.732,1.732,0,0,0-.267,1.9,1.8,1.8,0,0,0,1.778.937C905.97,507.915,908.076,507.927,910.375,507.927Z" transform="translate(-888.48 -461.28)" fill="#28282b"/>
      <path id="Path_62472" data-name="Path 62472" d="M888.481,810.3c.292-.018.586-.045.874-.045H927.6c.257,0,.511.036,1.041.075a76.252,76.252,0,0,1-.56,8.554c-.653,3.76-3.564,6.369-6.586,6.381q-12.942.057-25.887,0c-3.574-.015-6.455-3.406-6.954-8.02q-.069-.484-.176-.957Z" transform="translate(-888.48 -745.289)" fill="#28282b"/>
    </g>
  </g>
</svg>