<svg xmlns="http://www.w3.org/2000/svg" width="26.808" height="15.851" viewBox="0 0 26.808 15.851">
  <g id="Group_7389" data-name="Group 7389" transform="translate(-745 -1149.841)">
    <g id="Group_349" data-name="Group 349" transform="translate(43.07 22.15)">
      <path id="Path_58877" data-name="Path 58877" d="M17423.93-479.307a1,1,0,0,1-.732-.318,1,1,0,0,1,.051-1.413l8.914-8.306a1,1,0,0,1,1.367,0l4.537,4.277,9.814-9.544a1,1,0,0,1,1.094-.2,1,1,0,0,1,.6.933c0,.05-.072,5.032,0,6.943a1,1,0,0,1-.963,1.037h-.037a1,1,0,0,1-1-.962c-.041-1.084-.037-3.056-.025-4.641l-8.777,8.536a1,1,0,0,1-1.383.011l-4.553-4.291-8.229,7.667A1,1,0,0,1,17423.93-479.307Z" transform="translate(-16721 1622.85)"/>
      <path id="Line_1" data-name="Line 1" d="M7.985,1H0A1,1,0,0,1-1,0,1,1,0,0,1,0-1H7.985a1,1,0,0,1,1,1A1,1,0,0,1,7.985,1Z" transform="matrix(0.985, -0.174, 0.174, 0.985, 719.716, 1130.237)"/>
    </g>
  </g>
</svg>
