<svg xmlns="http://www.w3.org/2000/svg" width="18" height="14" viewBox="0 0 18 14">
  <path id="twitter_icn" d="M18,1.657a7.964,7.964,0,0,1-2.126.558A3.545,3.545,0,0,0,17.5.263a7.577,7.577,0,0,1-2.34.855A3.777,3.777,0,0,0,12.462,0,3.613,3.613,0,0,0,8.774,3.533a3.487,3.487,0,0,0,.086.806A10.606,10.606,0,0,1,1.253.644,3.441,3.441,0,0,0,.748,2.43,3.5,3.5,0,0,0,2.387,5.365,3.77,3.77,0,0,1,.72,4.93v.039A3.591,3.591,0,0,0,3.677,8.44a3.839,3.839,0,0,1-.968.116,3.4,3.4,0,0,1-.7-.06,3.708,3.708,0,0,0,3.448,2.461A7.628,7.628,0,0,1,.883,12.463,7.217,7.217,0,0,1,0,12.415,10.728,10.728,0,0,0,5.661,14a10.2,10.2,0,0,0,10.5-10.052c0-.156-.006-.307-.014-.457A7.2,7.2,0,0,0,18,1.657Z" fill="#1b2437"/>
</svg>
