<svg xmlns="http://www.w3.org/2000/svg" width="40" height="39.912" viewBox="0 0 40 39.912">
  <g id="Group_9184" data-name="Group 9184" transform="translate(-7660 -9445.087)">
    <g id="Group_9177" data-name="Group 9177" transform="translate(18492 10489.527)">
      <path id="Path_62598" data-name="Path 62598" d="M359.408,902.534h-.659c-.524-.07-1.051-.121-1.57-.215a11.548,11.548,0,0,1-9.63-8.454,24.891,24.891,0,0,1-.549-2.938v-.986c.046-.375.08-.753.139-1.127a14.221,14.221,0,0,1,8.1-11.038c1.5-.754,3.029-1.452,4.5-2.257a50.868,50.868,0,0,0,11.051-8.3,8.223,8.223,0,0,1,13.6,3.494,7.949,7.949,0,0,1-2.035,8.172c-1.084,1.161-2.18,2.315-3.2,3.53a53.519,53.519,0,0,0-7.336,11.877,13.749,13.749,0,0,1-8.551,7.508A30.578,30.578,0,0,1,359.408,902.534Z" transform="translate(-11179 -1907.061)" fill="#fff"/>
      <path id="Path_62599" data-name="Path 62599" d="M652.17,846.543l2.133-2.113,4.357,4.351-2.1,2.1A9.478,9.478,0,0,0,652.17,846.543Z" transform="translate(-11450.66 -1888.87)" fill="#fff"/>
    </g>
  </g>
</svg>
